#!OML:ASF H:\Pregnant\Project 1\Capture day 1\Session 1\femalepreg.ASF
:FULLY-SPECIFIED
:DEGREES
257
root 5.05617 15.8127 13.149 23.6902 0.545791 0.691268
lowerback -14.1353 -1.18016 -2.23795
upperback -4.91354 -1.18253 -2.01251
thorax 2.7413 -0.589819 -1.03132
lowerneck -23.2982 -6.62753 -1.99343
upperneck 18.9881 -11.0974 10.2795
head 10.712 -3.98419 2.20866
rclavicle -5.26779e-015 -1.11319e-014
rhumerus -28.5725 26.6178 -94.0423
rradius 78.9986
rwrist -33.6228
rhand -12.7274 -19.6504
rfingers 7.12502
rthumb 13.3559 -49.2023
lclavicle -5.26779e-015 -1.11319e-014
lhumerus -24.5255 -21.9701 91.1296
lradius 75.3289
lwrist 60.214
lhand -25.9384 9.48939
lfingers 7.12502
lthumb 0.605193 39.4683
rfemur -23.2101 24.186 -3.2639
rtibia 19.9133
rfoot -28.2241 -47.0975
rtoes 10.724
lfemur -22.6995 -6.69788 -14.9528
ltibia 9.01685
lfoot -3.22309 11.227
ltoes -20.7556
258
root 5.11083 15.814 13.1456 23.753 0.745175 0.738558
lowerback -14.0248 -1.1565 -2.30571
upperback -4.84928 -1.14319 -2.02844
thorax 2.75029 -0.569954 -1.00186
lowerneck -23.391 -6.77639 -2.20443
upperneck 18.7636 -11.2759 10.5536
head 10.6929 -4.05393 2.30609
rclavicle 9.44227e-015 6.36111e-015
rhumerus -28.6269 26.5384 -94.0069
rradius 78.2209
rwrist -33.8279
rhand -12.5852 -19.7273
rfingers 7.12502
rthumb 13.493 -49.2702
lclavicle 9.44227e-015 6.36111e-015
lhumerus -24.4566 -22.168 91.2042
lradius 74.3561
lwrist 60.4924
lhand -24.9799 9.96524
lfingers 7.12502
lthumb 1.53093 39.9395
rfemur -23.2446 23.7039 -3.37572
rtibia 20.0628
rfoot -27.953 -46.9364
rtoes 10.9297
lfemur -22.9672 -6.39679 -15.3211
ltibia 9.24678
lfoot -3.36595 10.6319
ltoes -20.6506
259
root 5.16738 15.8158 13.1412 23.8096 0.914075 0.753991
lowerback -13.8954 -1.1213 -2.34191
upperback -4.78354 -1.09422 -2.03204
thorax 2.7502 -0.545413 -0.975427
lowerneck -23.4769 -6.92562 -2.51766
upperneck 18.526 -11.4458 10.9384
head 10.683 -4.11456 2.46056
rclavicle 2.17669e-014 8.74653e-015
rhumerus -28.7033 26.4967 -93.9748
rradius 77.4721
rwrist -34.0298
rhand -12.4737 -19.7343
rfingers 7.12502
rthumb 13.6005 -49.27
lclavicle 2.17669e-014 8.74653e-015
lhumerus -24.4162 -22.3938 91.2936
lradius 73.4297
lwrist 60.7177
lhand -24.2329 10.0129
lfingers 7.12502
lthumb 2.25246 39.9808
rfemur -23.286 23.1502 -3.4541
rtibia 20.1903
rfoot -27.5515 -46.7293
rtoes 11.1108
lfemur -23.2566 -6.06266 -15.6854
ltibia 9.55176
lfoot -3.55485 10.0478
ltoes -20.5023
260
root 5.22537 15.818 13.1375 23.8648 1.05046 0.738306
lowerback -13.7708 -1.07338 -2.35161
upperback -4.71077 -1.03216 -2.02236
thorax 2.75974 -0.514524 -0.948268
lowerneck -23.5756 -7.08398 -2.82247
upperneck 18.2722 -11.6243 11.3096
head 10.67 -4.18036 2.60666
rclavicle 8.05078e-015 -6.36111e-015
rhumerus -28.7901 26.5009 -93.9351
rradius 76.7551
rwrist -34.2168
rhand -12.3651 -19.7589
rfingers 7.12502
rthumb 13.7052 -49.2876
lclavicle 8.05078e-015 -6.36111e-015
lhumerus -24.3941 -22.6639 91.402
lradius 72.5447
lwrist 60.887
lhand -23.7325 9.61499
lfingers 7.12502
lthumb 2.73567 39.5772
rfemur -23.3345 22.5513 -3.50516
rtibia 20.2955
rfoot -27.0388 -46.4929
rtoes 11.2376
lfemur -23.565 -5.6939 -16.0476
ltibia 9.92558
lfoot -3.7921 9.47325
ltoes -20.2812
261
root 5.28419 15.8199 13.1339 23.9159 1.16338 0.698932
lowerback -13.6418 -1.01297 -2.33858
upperback -4.63407 -0.956937 -2.00608
thorax 2.77071 -0.477198 -0.925053
lowerneck -23.6836 -7.25244 -3.09211
upperneck 18.0159 -11.8166 11.6395
head 10.6551 -4.2546 2.72937
rclavicle 3.8763e-015 7.15625e-015
rhumerus -28.8864 26.5458 -93.8928
rradius 76.0662
rwrist -34.3771
rhand -12.2412 -19.7769
rfingers 7.12502
rthumb 13.8245 -49.2975
lclavicle 3.8763e-015 7.15625e-015
lhumerus -24.3953 -22.9899 91.5284
lradius 71.7022
lwrist 60.9733
lhand -23.3302 9.30197
lfingers 7.12502
lthumb 3.12421 39.2588
rfemur -23.3874 21.9289 -3.53718
rtibia 20.3814
rfoot -26.5045 -46.2232
rtoes 11.417
lfemur -23.885 -5.30176 -16.4106
ltibia 10.3493
lfoot -4.05623 8.91021
ltoes -20.0678
262
root 5.34304 15.8219 13.1307 23.9648 1.25085 0.635538
lowerback -13.5145 -0.948663 -2.32083
upperback -4.55475 -0.877597 -1.97463
thorax 2.78534 -0.437826 -0.888252
lowerneck -23.7916 -7.41977 -3.31082
upperneck 17.7481 -12.0071 11.9122
head 10.6293 -4.33186 2.82336
rclavicle -9.44227e-015 -1.11319e-014
rhumerus -28.9939 26.6544 -93.8543
rradius 75.4097
rwrist -34.5214
rhand -12.1237 -19.7445
rfingers 7.12502
rthumb 13.9378 -49.2573
lclavicle -9.44227e-015 -1.11319e-014
lhumerus -24.4256 -23.3733 91.6744
lradius 70.9041
lwrist 60.9989
lhand -23.0401 9.04337
lfingers 7.12502
lthumb 3.40435 38.9959
rfemur -23.4558 21.3323 -3.55875
rtibia 20.4586
rfoot -25.9983 -45.9496
rtoes 11.6622
lfemur -24.2218 -5.29103 -16.5844
ltibia 10.796
lfoot -4.25162 8.78734
ltoes -19.8374
263
root 5.40141 15.824 13.1284 24.0263 1.31699 0.554386
lowerback -13.3977 -0.885424 -2.31202
upperback -4.48052 -0.79889 -1.92594
thorax 2.80051 -0.398675 -0.828843
lowerneck -23.9112 -7.58739 -3.46447
upperneck 17.4799 -12.1993 12.1075
head 10.596 -4.41416 2.87845
rclavicle -7.7526e-015 3.97569e-015
rhumerus -29.1187 26.8327 -93.8232
rradius 74.7921
rwrist -34.6676
rhand -11.9901 -19.7237
rfingers 7.12502
rthumb 14.0665 -49.2277
lclavicle -7.7526e-015 3.97569e-015
lhumerus -24.4922 -23.8017 91.8441
lradius 70.152
lwrist 60.9511
lhand -22.775 9.11545
lfingers 7.12502
lthumb 3.66034 39.0638
rfemur -23.5571 20.7815 -3.58399
rtibia 20.5367
rfoot -25.5646 -45.6807
rtoes 12.0022
lfemur -24.5655 -5.29279 -16.7324
ltibia 11.244
lfoot -4.4401 8.70677
ltoes -19.6022
264
root 5.45887 15.8269 13.1234 24.101 1.38556 0.467291
lowerback -13.2722 -0.82715 -2.31178
upperback -4.40982 -0.726376 -1.86889
thorax 2.80732 -0.362516 -0.756856
lowerneck -24.0603 -7.75469 -3.60304
upperneck 17.2345 -12.3936 12.2846
head 10.5747 -4.49616 2.92349
rclavicle -5.1684e-015 3.18055e-015
rhumerus -29.2393 27.0592 -93.8007
rradius 74.2114
rwrist -34.8455
rhand -11.8715 -19.7023
rfingers 7.12502
rthumb 14.1808 -49.1982
lclavicle -5.1684e-015 3.18055e-015
lhumerus -24.5919 -24.2686 92.0262
lradius 69.4697
lwrist 60.8447
lhand -22.5039 9.55397
lfingers 7.12502
lthumb 3.92217 39.4976
rfemur -23.692 20.2699 -3.61642
rtibia 20.619
rfoot -25.217 -45.4323
rtoes 12.4514
lfemur -24.9314 -5.31668 -16.8567
ltibia 11.6841
lfoot -4.60241 8.64799
ltoes -19.3825
265
root 5.51513 15.8299 13.1186 24.1914 1.44303 0.372218
lowerback -13.1582 -0.77881 -2.33517
upperback -4.34775 -0.664502 -1.79356
thorax 2.81151 -0.331506 -0.654424
lowerneck -24.193 -7.91611 -3.74764
upperneck 16.9867 -12.5749 12.4557
head 10.549 -4.57417 2.96979
rclavicle 1.68967e-015 1.19271e-014
rhumerus -29.3762 27.3502 -93.7933
rradius 73.6787
rwrist -35.0803
rhand -11.7639 -19.7005
rfingers 7.12502
rthumb 14.2845 -49.1892
lclavicle 1.68967e-015 1.19271e-014
lhumerus -24.7444 -24.7423 92.2289
lradius 68.8684
lwrist 60.7231
lhand -22.2633 10.0132
lfingers 7.12502
lthumb 4.15451 39.9525
rfemur -23.8597 19.8214 -3.66121
rtibia 20.7045
rfoot -24.9884 -45.2023
rtoes 13.0244
lfemur -25.3067 -5.34668 -16.9625
ltibia 12.1112
lfoot -4.74952 8.61132
ltoes -19.174
266
root 5.57146 15.8333 13.114 24.2985 1.48375 0.263902
lowerback -13.0522 -0.736382 -2.3602
upperback -4.29558 -0.610805 -1.70456
thorax 2.80961 -0.30449 -0.53827
lowerneck -24.2892 -8.07138 -3.88849
upperneck 16.7119 -12.7436 12.6238
head 10.5059 -4.64955 3.01705
rclavicle -5.26779e-015 -1.66979e-014
rhumerus -29.5281 27.6909 -93.8059
rradius 73.1989
rwrist -35.3806
rhand -11.6806 -19.7351
rfingers 7.12502
rthumb 14.3647 -49.2181
lclavicle -5.26779e-015 -1.66979e-014
lhumerus -24.951 -25.2037 92.4445
lradius 68.3583
lwrist 60.6126
lhand -22.1017 10.3925
lfingers 7.12502
lthumb 4.31052 40.3286
rfemur -24.0616 19.3961 -3.70949
rtibia 20.791
rfoot -24.8126 -44.9717
rtoes 13.677
lfemur -25.69 -5.37646 -17.0516
ltibia 12.5241
lfoot -4.8851 8.59583
ltoes -18.969
267
root 5.62783 15.8369 13.1097 24.4183 1.51008 0.14068
lowerback -12.9504 -0.700452 -2.38268
upperback -4.2521 -0.566687 -1.60202
thorax 2.80086 -0.282163 -0.411041
lowerneck -24.3663 -8.22123 -4.0334
upperneck 16.4227 -12.9017 12.7963
head 10.4545 -4.72147 3.06856
rclavicle 1.39149e-015 2.54444e-014
rhumerus -29.687 28.0628 -93.8369
rradius 72.7695
rwrist -35.739
rhand -11.6262 -19.8005
rfingers 7.12502
rthumb 14.4172 -49.2798
lclavicle 1.39149e-015 2.54444e-014
lhumerus -25.2066 -25.6335 92.666
lradius 67.9417
lwrist 60.5392
lhand -22.0403 10.4443
lfingers 7.12502
lthumb 4.36985 40.3792
rfemur -24.2853 18.9803 -3.75177
rtibia 20.8702
rfoot -24.6937 -44.729
rtoes 14.4386
lfemur -26.0759 -5.39726 -17.1255
ltibia 12.9227
lfoot -5.01197 8.59177
ltoes -18.7622
268
root 5.68415 15.8408 13.1063 24.5482 1.51336 0.00094931
lowerback -12.86 -0.669611 -2.40336
upperback -4.21226 -0.529707 -1.48762
thorax 2.79438 -0.263397 -0.273819
lowerneck -24.4353 -8.36348 -4.15361
upperneck 16.1136 -13.0487 12.9475
head 10.3906 -4.79071 3.11056
rclavicle 4.77083e-015 2.38542e-014
rhumerus -29.8365 28.4474 -93.882
rradius 72.3881
rwrist -36.1349
rhand -11.5804 -19.8975
rfingers 7.12502
rthumb 14.4613 -49.3736
lclavicle 4.77083e-015 2.38542e-014
lhumerus -25.499 -26.0189 92.8813
lradius 67.6133
lwrist 60.5346
lhand -22.0678 10.3859
lfingers 7.12502
lthumb 4.34328 40.3213
rfemur -24.5286 18.5832 -3.7875
rtibia 20.9386
rfoot -24.6022 -44.4875
rtoes 15.267
lfemur -26.4539 -5.39678 -17.1877
ltibia 13.3027
lfoot -5.13752 8.59554
ltoes -18.5482
269
root 5.74009 15.8454 13.103 24.6833 1.49921 -0.151451
lowerback -12.7667 -0.642271 -2.42308
upperback -4.18117 -0.49817 -1.36458
thorax 2.77706 -0.247219 -0.129007
lowerneck -24.5031 -8.50084 -4.26851
upperneck 15.8092 -13.189 13.0918
head 10.327 -4.85729 3.15043
rclavicle 3.27995e-015 1.90833e-014
rhumerus -29.9809 28.8177 -93.9417
rradius 72.0444
rwrist -36.5258
rhand -11.5221 -20.0029
rfingers 7.12502
rthumb 14.5175 -49.475
lclavicle 3.27995e-015 1.90833e-014
lhumerus -25.8316 -26.3358 93.0903
lradius 67.364
lwrist 60.5757
lhand -22.0339 10.4133
lfingers 7.12502
lthumb 4.37605 40.3481
rfemur -24.7872 18.2101 -3.81902
rtibia 20.9967
rfoot -24.6197 -44.2297
rtoes 16.2939
lfemur -26.8173 -5.38255 -17.2382
ltibia 13.654
lfoot -5.25467 8.60703
ltoes -18.3253
270
root 5.79554 15.8506 13.1004 24.8183 1.46111 -0.319278
lowerback -12.6813 -0.614852 -2.43677
upperback -4.14729 -0.467081 -1.23742
thorax 2.76681 -0.231368 0.016402
lowerneck -24.5821 -8.63371 -4.3725
upperneck 15.5025 -13.3242 13.2306
head 10.2636 -4.92121 3.18721
rclavicle -3.97569e-016 1.35174e-014
rhumerus -30.0927 29.1567 -94.0096
rradius 71.7192
rwrist -36.8659
rhand -11.472 -20.0195
rfingers 7.12502
rthumb 14.5658 -49.488
lclavicle -3.97569e-016 1.35174e-014
lhumerus -26.1805 -26.5907 93.2768
lradius 67.1798
lwrist 60.6914
lhand -21.9779 10.4649
lfingers 7.12502
lthumb 4.43013 40.3985
rfemur -25.0609 17.8725 -3.84409
rtibia 21.0495
rfoot -24.7312 -43.9685
rtoes 17.4879
lfemur -27.1487 -5.34318 -17.2785
ltibia 13.9631
lfoot -5.36236 8.61792
ltoes -18.0833
